<mxfile host="app.diagrams.net" modified="2023-12-27T10:16:46.029Z" agent="Mozilla/5.0 (Windows NT 10.0; Win64; x64) AppleWebKit/537.36 (KHTML, like Gecko) Chrome/119.0.0.0 Safari/537.36" etag="M5aUyLa_DwHmnUL1Zt2S" version="22.1.12" type="github">
  <diagram name="第 1 页" id="dTZ7GeoLHGvxoLyGKWD6">
    <mxGraphModel dx="1050" dy="557" grid="1" gridSize="10" guides="1" tooltips="1" connect="1" arrows="1" fold="1" page="1" pageScale="1" pageWidth="827" pageHeight="1169" math="0" shadow="0">
      <root>
        <mxCell id="0" />
        <mxCell id="1" parent="0" />
        <mxCell id="HAtNvtEdEH4-tXmGvJkB-1" style="edgeStyle=orthogonalEdgeStyle;rounded=0;orthogonalLoop=1;jettySize=auto;html=1;exitX=1;exitY=0.5;exitDx=0;exitDy=0;entryX=1;entryY=0.5;entryDx=0;entryDy=0;" edge="1" parent="1" source="HAtNvtEdEH4-tXmGvJkB-3" target="HAtNvtEdEH4-tXmGvJkB-19">
          <mxGeometry relative="1" as="geometry" />
        </mxCell>
        <mxCell id="HAtNvtEdEH4-tXmGvJkB-2" value="&lt;font style=&quot;font-size: 14px;&quot;&gt;补充&lt;/font&gt;" style="edgeLabel;html=1;align=center;verticalAlign=middle;resizable=0;points=[];" vertex="1" connectable="0" parent="HAtNvtEdEH4-tXmGvJkB-1">
          <mxGeometry x="0.0257" y="-3" relative="1" as="geometry">
            <mxPoint as="offset" />
          </mxGeometry>
        </mxCell>
        <mxCell id="HAtNvtEdEH4-tXmGvJkB-3" value="" style="rounded=0;whiteSpace=wrap;html=1;" vertex="1" parent="1">
          <mxGeometry x="213" y="1060" width="257" height="70" as="geometry" />
        </mxCell>
        <mxCell id="HAtNvtEdEH4-tXmGvJkB-4" value="肾精" style="rounded=1;whiteSpace=wrap;html=1;fontSize=17;" vertex="1" parent="1">
          <mxGeometry x="321" y="807" width="120" height="60" as="geometry" />
        </mxCell>
        <mxCell id="HAtNvtEdEH4-tXmGvJkB-5" value="脾" style="ellipse;whiteSpace=wrap;html=1;fontSize=20;" vertex="1" parent="1">
          <mxGeometry x="180" y="630" width="110" height="60" as="geometry" />
        </mxCell>
        <mxCell id="HAtNvtEdEH4-tXmGvJkB-6" value="" style="shape=cylinder3;whiteSpace=wrap;html=1;boundedLbl=1;backgroundOutline=1;size=15;rotation=-90;" vertex="1" parent="1">
          <mxGeometry x="450" y="540" width="60" height="120" as="geometry" />
        </mxCell>
        <mxCell id="HAtNvtEdEH4-tXmGvJkB-7" value="" style="endArrow=classic;html=1;rounded=0;exitX=1;exitY=0.5;exitDx=0;exitDy=0;entryX=0.5;entryY=0;entryDx=0;entryDy=0;entryPerimeter=0;" edge="1" parent="1" source="HAtNvtEdEH4-tXmGvJkB-5" target="HAtNvtEdEH4-tXmGvJkB-6">
          <mxGeometry width="50" height="50" relative="1" as="geometry">
            <mxPoint x="320" y="670" as="sourcePoint" />
            <mxPoint x="370" y="620" as="targetPoint" />
          </mxGeometry>
        </mxCell>
        <mxCell id="HAtNvtEdEH4-tXmGvJkB-8" value="津液入脉化血" style="edgeLabel;html=1;align=center;verticalAlign=middle;resizable=0;points=[];fontSize=15;" vertex="1" connectable="0" parent="HAtNvtEdEH4-tXmGvJkB-7">
          <mxGeometry x="0.0091" y="-1" relative="1" as="geometry">
            <mxPoint as="offset" />
          </mxGeometry>
        </mxCell>
        <mxCell id="HAtNvtEdEH4-tXmGvJkB-9" value="脉管" style="text;html=1;strokeColor=none;fillColor=none;align=center;verticalAlign=middle;whiteSpace=wrap;rounded=0;fontSize=15;" vertex="1" parent="1">
          <mxGeometry x="460" y="585" width="60" height="30" as="geometry" />
        </mxCell>
        <mxCell id="HAtNvtEdEH4-tXmGvJkB-10" value="水谷之精" style="text;html=1;strokeColor=none;fillColor=none;align=center;verticalAlign=middle;whiteSpace=wrap;rounded=0;" vertex="1" parent="1">
          <mxGeometry x="205" y="660" width="60" height="30" as="geometry" />
        </mxCell>
        <mxCell id="HAtNvtEdEH4-tXmGvJkB-11" value="肝" style="ellipse;whiteSpace=wrap;html=1;fontSize=17;" vertex="1" parent="1">
          <mxGeometry x="191" y="747" width="85" height="50" as="geometry" />
        </mxCell>
        <mxCell id="HAtNvtEdEH4-tXmGvJkB-12" value="肾" style="ellipse;whiteSpace=wrap;html=1;fontSize=17;" vertex="1" parent="1">
          <mxGeometry x="191" y="857" width="85" height="50" as="geometry" />
        </mxCell>
        <mxCell id="HAtNvtEdEH4-tXmGvJkB-13" value="" style="endArrow=classic;html=1;rounded=0;entryX=0;entryY=0.75;entryDx=0;entryDy=0;exitX=1;exitY=0.5;exitDx=0;exitDy=0;" edge="1" parent="1" source="HAtNvtEdEH4-tXmGvJkB-12" target="HAtNvtEdEH4-tXmGvJkB-4">
          <mxGeometry width="50" height="50" relative="1" as="geometry">
            <mxPoint x="271" y="887" as="sourcePoint" />
            <mxPoint x="321" y="837" as="targetPoint" />
          </mxGeometry>
        </mxCell>
        <mxCell id="HAtNvtEdEH4-tXmGvJkB-14" value="推动" style="edgeLabel;html=1;align=center;verticalAlign=middle;resizable=0;points=[];fontSize=14;" vertex="1" connectable="0" parent="HAtNvtEdEH4-tXmGvJkB-13">
          <mxGeometry x="-0.0687" y="-3" relative="1" as="geometry">
            <mxPoint as="offset" />
          </mxGeometry>
        </mxCell>
        <mxCell id="HAtNvtEdEH4-tXmGvJkB-15" value="" style="endArrow=classic;html=1;rounded=0;entryX=0;entryY=0.25;entryDx=0;entryDy=0;exitX=1;exitY=0.5;exitDx=0;exitDy=0;" edge="1" parent="1" source="HAtNvtEdEH4-tXmGvJkB-11" target="HAtNvtEdEH4-tXmGvJkB-4">
          <mxGeometry width="50" height="50" relative="1" as="geometry">
            <mxPoint x="271" y="767" as="sourcePoint" />
            <mxPoint x="321" y="727" as="targetPoint" />
          </mxGeometry>
        </mxCell>
        <mxCell id="HAtNvtEdEH4-tXmGvJkB-16" value="&lt;font style=&quot;font-size: 14px;&quot;&gt;推动&lt;/font&gt;" style="edgeLabel;html=1;align=center;verticalAlign=middle;resizable=0;points=[];" vertex="1" connectable="0" parent="HAtNvtEdEH4-tXmGvJkB-15">
          <mxGeometry x="-0.2659" y="-1" relative="1" as="geometry">
            <mxPoint as="offset" />
          </mxGeometry>
        </mxCell>
        <mxCell id="HAtNvtEdEH4-tXmGvJkB-17" value="" style="endArrow=classic;html=1;rounded=0;entryX=1;entryY=0.5;entryDx=0;entryDy=0;" edge="1" parent="1" target="HAtNvtEdEH4-tXmGvJkB-11">
          <mxGeometry width="50" height="50" relative="1" as="geometry">
            <mxPoint x="441" y="837" as="sourcePoint" />
            <mxPoint x="491" y="787" as="targetPoint" />
            <Array as="points">
              <mxPoint x="471" y="837" />
              <mxPoint x="471" y="772" />
            </Array>
          </mxGeometry>
        </mxCell>
        <mxCell id="HAtNvtEdEH4-tXmGvJkB-18" value="&lt;font style=&quot;font-size: 15px;&quot;&gt;入肝化血&lt;/font&gt;" style="edgeLabel;html=1;align=center;verticalAlign=middle;resizable=0;points=[];" vertex="1" connectable="0" parent="HAtNvtEdEH4-tXmGvJkB-17">
          <mxGeometry x="0.2979" y="-3" relative="1" as="geometry">
            <mxPoint as="offset" />
          </mxGeometry>
        </mxCell>
        <mxCell id="HAtNvtEdEH4-tXmGvJkB-19" value="肾精" style="ellipse;whiteSpace=wrap;html=1;fontSize=17;" vertex="1" parent="1">
          <mxGeometry x="385" y="970" width="85" height="50" as="geometry" />
        </mxCell>
        <mxCell id="HAtNvtEdEH4-tXmGvJkB-20" style="edgeStyle=orthogonalEdgeStyle;rounded=0;orthogonalLoop=1;jettySize=auto;html=1;exitX=0.5;exitY=1;exitDx=0;exitDy=0;entryX=0.25;entryY=0;entryDx=0;entryDy=0;" edge="1" parent="1" source="HAtNvtEdEH4-tXmGvJkB-22" target="HAtNvtEdEH4-tXmGvJkB-3">
          <mxGeometry relative="1" as="geometry" />
        </mxCell>
        <mxCell id="HAtNvtEdEH4-tXmGvJkB-21" value="充养" style="edgeLabel;html=1;align=center;verticalAlign=middle;resizable=0;points=[];fontSize=14;" vertex="1" connectable="0" parent="HAtNvtEdEH4-tXmGvJkB-20">
          <mxGeometry x="-0.4785" y="-1" relative="1" as="geometry">
            <mxPoint as="offset" />
          </mxGeometry>
        </mxCell>
        <mxCell id="HAtNvtEdEH4-tXmGvJkB-22" value="水谷精微" style="ellipse;whiteSpace=wrap;html=1;fontSize=17;" vertex="1" parent="1">
          <mxGeometry x="205" y="970" width="85" height="50" as="geometry" />
        </mxCell>
        <mxCell id="HAtNvtEdEH4-tXmGvJkB-23" value="脏腑之精" style="ellipse;whiteSpace=wrap;html=1;fontSize=17;" vertex="1" parent="1">
          <mxGeometry x="230" y="1070" width="85" height="50" as="geometry" />
        </mxCell>
        <mxCell id="HAtNvtEdEH4-tXmGvJkB-24" value="血液" style="ellipse;whiteSpace=wrap;html=1;fontSize=17;" vertex="1" parent="1">
          <mxGeometry x="356" y="1070" width="85" height="50" as="geometry" />
        </mxCell>
        <mxCell id="HAtNvtEdEH4-tXmGvJkB-25" style="edgeStyle=orthogonalEdgeStyle;rounded=0;orthogonalLoop=1;jettySize=auto;html=1;exitX=0.5;exitY=1;exitDx=0;exitDy=0;entryX=0.636;entryY=-0.031;entryDx=0;entryDy=0;entryPerimeter=0;" edge="1" parent="1" source="HAtNvtEdEH4-tXmGvJkB-19" target="HAtNvtEdEH4-tXmGvJkB-3">
          <mxGeometry relative="1" as="geometry" />
        </mxCell>
        <mxCell id="HAtNvtEdEH4-tXmGvJkB-26" value="充养" style="edgeLabel;html=1;align=center;verticalAlign=middle;resizable=0;points=[];fontSize=14;" vertex="1" connectable="0" parent="HAtNvtEdEH4-tXmGvJkB-25">
          <mxGeometry x="-0.6578" y="-2" relative="1" as="geometry">
            <mxPoint as="offset" />
          </mxGeometry>
        </mxCell>
        <mxCell id="HAtNvtEdEH4-tXmGvJkB-27" value="精血同源" style="text;html=1;strokeColor=none;fillColor=none;align=center;verticalAlign=middle;whiteSpace=wrap;rounded=0;fontSize=16;fontColor=#FF5D17;" vertex="1" parent="1">
          <mxGeometry x="90" y="960" width="80" height="30" as="geometry" />
        </mxCell>
        <mxCell id="HAtNvtEdEH4-tXmGvJkB-28" value="血的生成" style="text;html=1;strokeColor=none;fillColor=none;align=center;verticalAlign=middle;whiteSpace=wrap;rounded=0;fontSize=16;fontColor=#FF5D17;" vertex="1" parent="1">
          <mxGeometry x="100" y="540" width="80" height="30" as="geometry" />
        </mxCell>
      </root>
    </mxGraphModel>
  </diagram>
</mxfile>
